<?xml version="1.0" standalone="no"?>
<!DOCTYPE svg PUBLIC "-//W3C//DTD SVG 20010904//EN"
 "http://www.w3.org/TR/2001/REC-SVG-20010904/DTD/svg10.dtd">
<svg version="1.0" xmlns="http://www.w3.org/2000/svg"
 width="1024.000000pt" height="1024.000000pt" viewBox="0 0 1024.000000 1024.000000"
 preserveAspectRatio="xMidYMid meet">
<metadata>
Created by potrace 1.14, written by Peter Selinger 2001-2017
</metadata>
<g transform="translate(0.000000,1024.000000) scale(0.100000,-0.100000)"
fill="#000000" stroke="none">
<path d="M5052 9103 c0 -142 0 -265 -1 -274 -1 -12 -19 -16 -103 -18 -57 -1
-125 -4 -153 -6 -159 -13 -163 -13 -300 -31 -16 -3 -46 -6 -65 -8 -19 -2 -42
-6 -50 -9 -8 -3 -31 -8 -50 -11 -19 -3 -50 -10 -68 -15 -18 -5 -33 -10 -35
-10 -1 1 -13 -2 -27 -5 -14 -3 -36 -8 -50 -10 -14 -3 -26 -5 -27 -7 -2 -1 -11
-2 -20 -3 -28 -2 -116 -26 -136 -37 -10 -5 -22 -7 -27 -4 -6 4 -10 1 -10 -4 0
-6 -3 -10 -7 -9 -5 1 -48 -11 -98 -26 -49 -16 -96 -29 -102 -29 -7 0 -13 -3
-13 -7 0 -9 -51 -32 -57 -26 -3 3 -12 -2 -20 -10 -8 -8 -19 -12 -24 -9 -5 4
-9 1 -9 -6 0 -7 -3 -9 -7 -6 -3 4 -12 2 -20 -4 -7 -6 -13 -8 -13 -5 0 4 -10
-2 -22 -14 -15 -13 -24 -16 -29 -9 -5 8 -8 8 -10 0 -3 -7 -14 -13 -26 -14 -12
0 -19 -5 -17 -9 3 -4 -4 -8 -15 -8 -11 0 -23 -5 -26 -11 -4 -6 -13 -8 -21 -5
-8 3 -14 1 -14 -4 0 -6 -7 -10 -15 -10 -8 0 -15 -5 -15 -11 0 -5 -4 -7 -10 -4
-5 3 -10 2 -10 -3 0 -6 -11 -13 -25 -16 -14 -4 -25 -11 -25 -17 0 -6 -4 -8 -9
-4 -5 3 -12 1 -16 -5 -3 -5 -15 -10 -25 -10 -10 0 -20 -4 -22 -9 -1 -5 -10
-11 -18 -13 -8 -2 -17 -6 -20 -9 -3 -3 -25 -17 -50 -31 -25 -14 -61 -34 -82
-46 -20 -11 -39 -18 -42 -15 -3 4 -6 1 -6 -6 0 -7 -4 -10 -9 -7 -5 3 -12 -1
-15 -9 -3 -8 -9 -14 -13 -13 -11 3 -57 -13 -63 -22 -3 -4 -36 -27 -75 -50 -76
-46 -136 -89 -147 -105 -4 -5 -8 -7 -8 -3 0 4 -10 -3 -23 -15 -43 -41 -128
-112 -139 -116 -16 -5 -68 -60 -68 -70 0 -5 7 -14 15 -21 12 -10 15 -10 15 1
0 11 2 11 10 -1 9 -14 14 -7 11 13 -1 5 3 6 9 2 6 -3 8 -10 5 -14 -2 -5 7 -13
21 -20 23 -10 26 -9 31 8 3 11 13 19 23 18 14 -1 16 -5 9 -13 -8 -9 -5 -11 10
-7 12 3 19 9 16 12 -2 4 3 8 11 8 8 0 -3 -18 -28 -43 -24 -23 -50 -50 -59 -60
-20 -24 -97 -94 -103 -94 -7 0 -207 -203 -256 -260 -25 -28 -49 -57 -55 -63
-27 -31 -124 -156 -145 -187 -13 -19 -27 -37 -30 -40 -3 -3 -9 -12 -15 -21 -5
-9 -28 -43 -50 -75 -59 -87 -65 -97 -71 -116 -4 -10 -10 -18 -13 -18 -4 0 -18
-22 -31 -50 -13 -27 -27 -50 -32 -50 -5 0 -7 -4 -3 -9 3 -5 1 -12 -5 -16 -5
-3 -10 -14 -10 -23 0 -14 52 55 74 99 20 40 180 276 221 324 13 17 28 35 32
40 43 56 105 128 140 163 23 23 40 42 37 42 -2 0 1 6 8 14 7 8 15 12 17 11 2
-2 15 10 28 26 14 16 28 27 31 24 3 -2 12 4 20 16 8 11 20 18 28 15 8 -3 13 0
11 6 -1 7 8 17 21 23 12 5 22 13 22 17 0 5 9 8 21 8 11 0 17 5 14 10 -3 6 3
10 14 10 11 0 26 7 35 15 10 10 17 12 21 4 5 -6 12 -4 21 8 8 11 13 13 14 5 0
-9 5 -10 19 -2 13 7 22 7 26 0 3 -5 11 -10 16 -10 6 0 8 4 5 9 -4 5 5 4 19 -2
13 -7 20 -13 15 -15 -6 -2 -10 -8 -10 -13 0 -6 6 -7 13 -3 24 15 -18 -31 -143
-157 -69 -69 -154 -159 -190 -199 -36 -40 -77 -85 -91 -99 -14 -14 -54 -69
-89 -121 -35 -52 -76 -111 -92 -131 -15 -20 -28 -40 -28 -45 0 -4 -7 -15 -16
-25 -10 -11 -12 -19 -4 -24 6 -3 9 -1 8 6 -2 8 9 14 27 16 52 5 55 6 53 22 -2
11 3 15 16 13 11 -2 15 1 11 7 -3 6 -2 11 4 11 6 0 8 7 5 15 -4 8 -1 15 4 15
6 0 9 -9 7 -20 -2 -11 2 -20 8 -20 8 0 7 -3 -2 -9 -11 -7 -10 -11 5 -20 11 -6
13 -11 7 -11 -7 0 -13 -5 -13 -11 0 -6 8 -9 18 -7 12 4 18 -1 18 -13 0 -10 -4
-15 -9 -12 -5 3 -7 -1 -6 -8 3 -17 -40 -109 -51 -109 -4 0 -7 -8 -6 -17 0 -9
-13 -26 -30 -37 -30 -21 -114 -117 -104 -120 3 -1 -5 -13 -18 -26 -13 -14 -33
-42 -45 -62 -11 -21 -25 -38 -29 -38 -5 0 -6 -5 -3 -10 3 -6 -1 -13 -9 -16 -9
-3 -14 -10 -11 -14 2 -4 -6 -19 -20 -34 -13 -15 -26 -30 -27 -34 -2 -4 -6 -6
-10 -5 -8 3 -12 -12 -9 -29 0 -5 -4 -8 -10 -8 -5 0 -7 -6 -4 -12 4 -7 -1 -4
-9 6 -18 22 -21 14 -6 -15 8 -13 7 -19 0 -19 -6 0 -8 -4 -5 -10 3 -5 1 -10 -5
-10 -6 0 -8 -5 -4 -11 7 -11 -12 -29 -31 -29 -5 0 -3 5 5 10 8 5 11 10 6 10
-5 0 -3 7 4 15 7 8 14 31 16 52 6 61 7 63 23 64 10 0 12 2 4 6 -10 3 -10 10
-2 25 9 16 8 19 -3 13 -7 -3 -5 0 4 8 10 8 15 17 11 20 -3 4 0 14 8 24 8 9 9
14 3 10 -6 -4 -4 9 4 28 9 19 20 35 25 35 4 0 6 4 2 10 -3 5 -1 17 4 27 6 10
21 43 35 73 14 30 44 88 66 129 23 40 36 71 30 69 -6 -2 -21 -21 -33 -43 -12
-22 -25 -42 -28 -45 -9 -8 -116 -232 -124 -260 -4 -14 -11 -27 -16 -30 -4 -3
-9 -12 -11 -20 -3 -14 -7 -20 -36 -54 -6 -8 -12 -21 -12 -29 0 -8 -9 -22 -19
-31 -12 -11 -17 -24 -13 -34 5 -14 4 -15 -10 -2 -9 8 -13 17 -9 20 3 3 7 24 7
48 2 36 0 41 -12 31 -12 -9 -20 -7 -39 11 -23 21 -24 57 -1 43 6 -4 5 1 -2 10
-8 9 -10 22 -6 28 4 8 3 9 -4 5 -11 -7 -17 6 -13 28 1 5 -4 4 -12 -2 -11 -10
-17 -9 -27 3 -8 9 -9 15 -4 14 23 -4 26 2 8 16 -12 9 -13 13 -4 10 12 -4 16 1
15 22 -1 15 4 34 9 42 6 8 9 15 8 15 -2 1 3 19 12 41 9 22 16 44 15 49 0 5 5
12 12 17 7 4 14 15 15 25 2 9 8 20 15 24 6 4 8 13 5 19 -4 6 -2 11 3 11 6 0
11 7 11 15 0 8 5 15 11 15 5 0 7 5 4 10 -3 6 -1 10 5 10 6 0 9 4 6 9 -3 5 4
21 17 37 12 16 20 29 18 29 -3 0 2 11 10 25 9 14 39 66 69 115 29 50 57 92 62
93 4 2 8 8 8 13 0 5 16 31 36 59 20 27 32 50 28 50 -4 0 1 7 12 15 10 8 15 15
11 15 -4 0 3 12 17 27 14 15 23 29 21 31 -4 4 -65 -55 -65 -64 0 -3 -34 -55
-75 -116 -41 -61 -75 -114 -75 -119 0 -5 -3 -9 -7 -9 -5 0 -30 -44 -58 -98
-27 -53 -54 -100 -60 -104 -5 -4 -6 -8 -1 -8 5 0 3 -7 -4 -15 -7 -8 -9 -15 -6
-15 4 0 0 -7 -8 -16 -9 -8 -14 -20 -11 -25 4 -5 2 -9 -2 -9 -7 0 -47 -81 -44
-88 1 -1 -5 -10 -14 -18 -8 -9 -13 -20 -10 -25 4 -5 1 -9 -4 -9 -6 0 -11 -7
-11 -15 0 -8 -4 -15 -10 -15 -5 0 -10 -6 -10 -14 0 -18 -32 -76 -42 -76 -4 0
-5 -7 -2 -15 4 -8 1 -15 -5 -15 -6 0 -11 -7 -11 -15 0 -8 -6 -15 -12 -15 -9 0
-8 -4 2 -10 13 -8 13 -10 -1 -10 -11 0 -15 -8 -14 -25 2 -14 0 -23 -5 -20 -4
3 -11 -7 -14 -21 -4 -16 -12 -24 -21 -21 -7 3 -16 0 -19 -8 -3 -9 0 -12 8 -9
8 3 17 0 22 -7 4 -8 3 -10 -4 -5 -7 4 -12 2 -12 -4 0 -6 -5 -8 -11 -4 -8 4 -8
0 0 -15 7 -11 8 -21 3 -21 -10 0 -11 -5 -15 -70 -3 -48 -16 -57 -52 -33 -11 7
-27 13 -37 13 -10 0 -18 5 -18 10 0 6 -11 10 -25 10 -30 0 -39 17 -27 51 5 13
9 27 8 30 0 3 4 12 10 20 6 8 15 28 19 44 10 37 9 34 23 68 7 16 12 31 12 34
0 13 95 218 102 221 4 2 8 10 8 17 0 8 19 49 42 92 22 43 46 88 52 100 6 13
14 23 19 23 4 0 7 5 7 11 0 6 19 41 43 77 60 93 59 92 49 92 -10 0 -109 -144
-137 -200 -10 -19 -21 -37 -24 -40 -22 -16 -208 -417 -217 -469 -3 -13 -12
-37 -20 -52 -8 -16 -11 -29 -7 -29 4 0 2 -5 -5 -12 -7 -7 -12 -22 -12 -35 0
-20 -4 -23 -27 -17 -16 4 -32 10 -38 14 -16 11 -95 40 -95 35 0 -5 68 -37 115
-55 29 -11 30 -18 9 -85 -30 -100 -73 -263 -79 -305 -1 -8 -8 -35 -15 -60 -16
-55 -17 -62 -24 -127 -2 -29 -7 -57 -10 -61 -16 -26 -40 -252 -27 -252 4 0 7
16 6 35 -1 19 1 35 4 35 3 0 7 10 7 23 1 12 5 36 8 52 3 17 7 39 9 50 1 11 6
26 10 33 5 7 3 12 -5 12 -9 0 -10 2 -1 8 6 4 14 25 18 47 4 22 9 48 12 59 4
13 1 17 -8 12 -8 -4 -7 -2 2 6 9 7 16 20 17 28 2 26 10 64 21 98 5 17 8 32 6
32 -2 0 2 15 10 33 11 27 11 37 2 47 -7 7 -7 10 -1 7 9 -5 38 74 39 108 0 6 3
15 6 20 3 6 12 31 19 58 7 26 16 50 20 52 4 3 42 -11 85 -30 67 -31 76 -38 70
-56 -4 -12 -9 -29 -10 -38 -2 -9 -4 -18 -6 -21 -1 -3 -3 -9 -4 -15 -2 -5 -4
-12 -5 -15 -3 -9 -11 -44 -17 -73 -3 -15 -9 -30 -14 -32 -4 -3 -4 -17 1 -31 7
-19 7 -23 -2 -18 -7 5 -9 2 -5 -8 3 -9 3 -19 -1 -23 -4 -4 -8 -15 -8 -26 -3
-36 -4 -40 -11 -36 -7 5 -10 -10 -16 -98 -1 -16 -8 -37 -16 -45 -10 -10 -10
-15 -2 -18 6 -2 8 -9 4 -15 -4 -7 -8 -18 -10 -26 -1 -8 -4 -26 -8 -39 -4 -18
-3 -22 7 -16 10 6 11 5 1 -7 -7 -9 -15 -35 -18 -59 -4 -28 -15 -52 -30 -68
-14 -14 -25 -31 -25 -38 0 -8 -4 -14 -8 -14 -13 0 -13 -65 -1 -96 7 -16 12
-32 11 -36 -1 -5 5 -8 13 -8 11 0 15 -13 15 -52 0 -102 10 -524 14 -593 2 -38
9 -83 15 -98 8 -21 8 -26 -1 -21 -6 4 -8 3 -5 -3 3 -5 14 -45 23 -89 18 -88
18 -89 27 -124 4 -14 9 -36 11 -50 6 -36 17 -83 23 -100 10 -25 12 -33 19 -70
3 -19 10 -40 15 -46 5 -7 8 -18 7 -25 -2 -8 2 -13 8 -12 7 1 10 -6 7 -17 -3
-12 0 -20 6 -20 7 0 9 4 6 10 -3 6 1 7 10 3 10 -3 13 -8 6 -12 -5 -4 -9 -16
-8 -28 0 -12 4 -20 7 -18 3 1 10 -3 17 -10 10 -11 10 -15 0 -18 -9 -4 -9 -6 1
-6 7 -1 10 -6 7 -11 -4 -6 -1 -18 7 -27 11 -14 11 -16 -1 -9 -9 6 -9 2 2 -15
9 -13 17 -41 19 -62 1 -20 6 -37 11 -37 5 0 7 -7 3 -15 -3 -9 3 -19 16 -26 17
-9 18 -13 7 -20 -11 -7 -11 -9 -1 -9 7 0 11 -4 8 -9 -4 -5 8 -21 25 -35 17
-14 27 -26 22 -26 -5 0 -15 6 -23 13 -7 6 -4 -2 8 -19 17 -24 19 -34 9 -44 -9
-10 -9 -11 0 -6 8 4 13 1 13 -8 0 -9 6 -16 13 -16 9 0 9 -2 -1 -9 -16 -10 -18
-21 -5 -30 5 -3 15 -25 21 -49 7 -23 16 -41 20 -38 4 2 8 -7 9 -21 0 -14 5
-28 10 -32 4 -3 9 -11 10 -17 1 -6 19 -40 39 -75 21 -35 37 -69 37 -76 0 -6 6
-14 14 -17 7 -3 13 -12 13 -21 0 -8 5 -15 11 -15 5 0 7 -5 4 -10 -3 -6 -1 -10
4 -10 6 0 10 -6 9 -12 -2 -7 3 -12 10 -10 8 1 11 -2 7 -7 -3 -6 3 -19 15 -31
11 -11 20 -25 20 -30 0 -12 30 -62 43 -71 5 -3 7 -9 5 -13 -4 -8 35 -66 45
-66 4 0 7 -5 7 -10 0 -11 33 -60 62 -94 10 -11 18 -23 18 -27 0 -5 10 -18 23
-31 25 -26 69 -79 107 -127 28 -36 96 -106 129 -133 20 -17 30 -58 14 -58 -5
0 -21 -11 -38 -25 -24 -21 -29 -34 -31 -76 -2 -45 1 -53 35 -88 38 -38 56 -42
121 -26 14 4 33 7 43 7 9 -1 15 3 12 9 -9 14 2 11 19 -6 14 -14 18 -14 45 -1
16 9 36 23 45 31 9 9 16 13 16 8 0 -5 18 -9 41 -9 22 0 44 -6 48 -13 5 -7 11
-12 15 -12 20 3 26 0 20 -11 -4 -6 -3 -8 3 -5 6 4 24 -7 42 -23 17 -17 35 -30
41 -30 5 0 9 -6 8 -12 -2 -7 3 -12 10 -10 8 1 11 -2 8 -7 -4 -5 -1 -13 5 -16
5 -4 8 -13 5 -21 -3 -7 3 -18 12 -23 14 -8 14 -11 2 -11 -12 0 -11 -3 3 -11
12 -7 15 -15 9 -22 -5 -7 -8 -20 -7 -29 2 -10 0 -20 -5 -23 -4 -3 -6 -21 -3
-42 5 -37 23 -63 43 -63 6 0 8 -4 5 -10 -3 -5 1 -10 10 -10 11 0 15 -5 12 -14
-4 -11 -1 -13 10 -9 11 4 14 2 9 -5 -5 -8 1 -12 15 -12 12 0 19 -3 16 -7 -4
-3 -1 -13 6 -22 10 -14 10 -14 -4 -3 -13 10 -19 9 -30 -5 -12 -14 -12 -16 0
-8 11 6 13 3 7 -16 -4 -13 -9 -33 -12 -44 -3 -11 -7 -42 -7 -70 -2 -37 1 -49
11 -47 8 1 11 -1 8 -6 -2 -4 -1 -14 5 -22 6 -10 9 -11 9 -3 0 9 7 7 20 -5 20
-17 124 -26 113 -9 -2 4 2 7 10 7 8 0 26 11 40 24 14 13 28 21 31 18 5 -4 9 9
8 28 0 3 6 11 14 18 9 8 14 9 14 2 0 -6 4 -9 9 -6 5 3 14 -1 21 -9 7 -8 19
-15 27 -15 8 0 12 -4 8 -9 -3 -6 4 -8 15 -6 12 2 23 -2 27 -10 3 -8 9 -13 13
-10 5 3 15 -2 23 -10 9 -8 20 -15 26 -15 6 0 11 -4 11 -10 0 -5 7 -10 16 -10
8 0 13 -4 10 -9 -3 -5 1 -12 10 -15 9 -4 14 -13 10 -21 -3 -8 -1 -15 5 -15 6
0 5 -8 -2 -22 -10 -18 -9 -20 5 -15 27 10 18 -2 -15 -22 l-32 -20 34 -20 c19
-12 40 -21 47 -21 6 0 12 -5 12 -11 0 -5 4 -8 9 -5 5 3 14 -1 21 -9 7 -8 16
-13 20 -10 5 3 11 1 15 -5 10 -16 115 -61 127 -54 6 4 8 2 4 -4 -3 -6 -2 -13
4 -17 5 -3 10 -1 10 4 0 6 9 2 20 -9 11 -11 27 -20 35 -20 8 0 15 -4 15 -10 0
-7 232 -10 676 -10 572 0 678 2 690 14 17 18 18 29 2 21 -7 -4 -6 -1 2 7 15
13 25 70 12 65 -4 -1 -8 1 -9 6 -2 4 0 7 3 6 4 0 11 5 15 13 7 11 9 11 9 -1 0
-11 3 -11 17 0 10 9 18 10 20 3 2 -5 18 -9 36 -7 82 9 107 8 107 -1 0 -6 4 -5
9 2 5 8 25 12 52 11 24 -1 53 0 64 4 18 5 134 16 245 23 25 1 45 3 45 4 0 1
14 3 30 5 61 7 111 15 149 24 22 5 43 8 47 5 4 -2 10 0 13 5 6 9 104 30 159
34 9 1 17 4 17 7 0 4 6 7 13 7 6 0 26 4 42 8 17 3 36 7 43 7 6 1 12 4 12 8 0
3 8 7 18 8 49 6 57 8 62 14 3 4 15 9 25 11 11 1 26 6 33 10 7 5 12 3 12 -4 0
-7 7 -4 15 7 10 13 14 14 15 5 0 -11 3 -11 17 0 12 11 17 11 20 2 4 -10 8 -9
20 2 19 19 34 19 27 0 -4 -10 0 -13 15 -10 27 5 36 -11 14 -24 -10 -6 -13 -11
-7 -11 6 0 17 6 23 14 8 10 8 16 -2 25 -8 6 -17 8 -20 4 -4 -3 -7 -1 -7 5 0
15 17 16 25 2 5 -8 11 -8 20 0 10 9 13 7 10 -7 -2 -10 -4 -20 -5 -23 -1 -3 -2
-9 -1 -13 1 -5 -3 -6 -8 -3 -5 3 -14 -1 -20 -8 -7 -8 -23 -13 -37 -11 -13 1
-22 0 -19 -3 2 -3 -3 -11 -13 -18 -10 -7 -19 -9 -23 -3 -3 6 -12 2 -20 -7 -12
-16 -12 -17 3 -11 10 3 20 2 23 -3 4 -6 13 -6 23 -1 20 10 75 34 82 36 17 3
106 40 110 45 6 8 32 18 41 16 3 0 13 5 22 13 10 7 17 10 17 5 0 -5 5 -2 10 6
5 8 13 15 17 15 16 2 58 18 63 25 3 5 14 10 25 12 11 1 28 12 38 22 9 11 17
14 17 7 0 -7 5 -9 10 -6 6 4 7 11 4 17 -4 6 -2 8 4 4 6 -3 18 1 26 10 9 8 16
12 16 9 0 -4 19 8 42 27 23 18 39 26 34 18 -4 -8 -1 -7 7 3 8 9 19 17 24 17 5
0 18 9 28 20 10 11 23 20 28 20 5 0 16 8 24 18 10 11 12 12 8 2 -4 -10 -2 -9
8 3 8 9 19 17 26 17 6 0 11 5 11 11 0 5 5 7 10 4 6 -3 13 1 16 9 3 9 10 14 14
11 5 -3 13 3 19 12 6 10 11 14 11 10 0 -5 6 -2 13 5 8 7 29 24 47 38 19 14 49
38 67 54 18 15 33 24 33 20 0 -5 5 -1 11 8 5 10 16 18 24 18 7 0 17 9 20 20 4
11 11 18 16 15 5 -4 9 1 9 10 0 9 4 14 8 11 10 -6 52 47 52 64 0 6 3 9 8 7 4
-3 16 7 27 21 34 43 190 196 198 194 4 -1 7 2 7 8 0 5 19 29 43 53 73 76 107
116 107 126 0 5 7 11 15 15 8 3 15 13 15 21 0 9 4 14 9 10 5 -3 12 3 15 12 3
10 19 32 36 50 16 18 30 37 30 42 0 6 4 11 10 11 5 0 23 20 39 44 17 25 37 51
45 59 8 8 12 17 9 21 -4 3 -2 6 3 6 6 0 23 22 39 50 17 27 33 50 38 50 4 0 7
5 7 11 0 6 10 25 23 42 27 39 50 78 78 135 12 23 26 42 32 42 6 0 8 3 4 6 -3
4 6 25 21 48 15 22 37 60 47 83 11 24 23 43 28 43 4 0 7 5 7 11 0 6 21 54 47
107 26 54 48 102 49 107 1 6 11 30 22 55 58 129 70 159 65 164 -3 3 -1 11 4
18 6 7 14 27 18 43 9 34 9 34 18 58 21 55 35 106 44 157 3 19 8 37 12 40 3 3
7 11 9 18 5 26 14 88 15 105 1 9 5 17 10 17 5 0 7 9 4 20 -3 11 -2 20 2 20 4
0 7 8 8 18 0 9 4 40 8 67 13 96 12 189 -2 217 -7 15 -13 30 -13 33 0 3 0 6 -1
8 -1 1 -2 22 -4 47 -3 39 -7 63 -18 115 -2 6 -6 16 -10 23 -5 7 -3 12 4 12 7
0 5 9 -6 26 -11 18 -12 24 -4 18 12 -6 12 -5 0 9 -7 9 -11 17 -7 17 3 0 0 16
-9 35 -8 20 -10 33 -6 30 5 -3 4 14 -3 38 -7 23 -12 54 -11 70 0 15 -2 27 -5
27 -3 0 -6 17 -6 38 -2 73 -9 107 -24 120 -13 12 -12 13 4 7 19 -6 19 -5 1 15
-10 11 -15 20 -10 20 4 0 1 8 -6 17 -12 14 -12 16 2 11 9 -4 16 -1 16 8 0 7
-4 11 -8 8 -4 -2 -10 0 -13 5 -4 5 -2 12 4 16 5 3 10 12 10 18 0 9 -2 9 -8 1
-5 -9 -11 -8 -20 2 -10 11 -10 14 0 14 8 0 9 3 3 8 -10 7 -12 24 -17 125 -2
26 -5 47 -8 47 -3 0 -6 24 -7 53 -5 98 -23 276 -30 297 -3 8 -6 33 -7 56 0 22
-8 49 -16 59 -9 11 -10 16 -2 11 6 -4 12 -3 12 3 0 5 -5 13 -10 16 -7 4 -6 13
1 26 7 15 7 24 -2 35 -11 13 -6 18 14 15 5 -1 6 3 3 8 -4 5 4 20 16 32 18 17
19 20 5 16 -16 -6 -16 -5 -1 18 9 14 16 40 16 60 0 19 4 33 8 30 17 -11 17 23
-1 46 -22 29 -26 51 -3 23 15 -19 16 -19 9 1 -4 11 -8 28 -10 38 -2 9 -6 21
-9 25 -3 5 1 9 8 9 8 0 12 -7 9 -14 -3 -8 0 -13 8 -11 8 2 13 -8 14 -27 4 -62
5 -66 18 -59 6 4 3 -3 -7 -15 -20 -22 -20 -22 0 -15 17 7 18 6 5 -10 -12 -15
-12 -17 0 -14 8 2 13 -3 12 -9 -2 -7 2 -13 8 -13 6 0 9 -9 6 -20 -3 -11 -1
-23 4 -26 5 -3 7 -10 4 -15 -4 -5 -2 -9 2 -9 5 0 10 -14 11 -32 2 -18 6 -35
11 -38 4 -3 7 -13 5 -22 -1 -10 2 -18 7 -18 5 0 8 -3 8 -7 -1 -5 0 -11 1 -15
5 -16 21 -97 25 -128 2 -8 5 -35 9 -60 3 -25 8 -56 11 -69 15 -77 23 -583 11
-734 -4 -43 -2 -66 4 -62 6 3 10 2 10 -4 0 -11 18 -9 44 5 16 10 19 27 22 140
2 71 5 153 7 181 2 29 -1 53 -6 53 -4 0 -5 5 -1 12 11 17 4 202 -10 307 -15
106 -19 140 -20 166 -1 17 -4 32 -8 35 -3 3 -9 29 -12 58 -3 30 -8 58 -11 62
-3 5 -8 28 -11 52 -4 24 -10 51 -15 61 -6 9 -7 17 -4 17 3 0 1 8 -4 19 -6 10
-13 32 -16 50 -3 17 -13 53 -21 79 -9 26 -18 52 -19 57 -2 11 -12 39 -25 70
-24 59 -39 105 -35 105 3 0 -3 12 -12 27 -10 15 -17 30 -16 33 0 3 -7 23 -16
45 -28 63 -34 79 -33 88 1 4 -3 7 -8 7 -6 0 -10 6 -10 13 0 13 -158 329 -169
337 -3 3 -7 12 -9 20 -4 24 -36 80 -45 80 -4 0 -6 4 -3 9 4 5 2 11 -3 13 -5 1
-11 10 -13 18 -2 8 -10 21 -18 28 -13 12 -13 13 0 6 13 -7 13 -5 1 9 -23 29
12 21 42 -8 15 -16 28 -22 32 -15 3 5 0 10 -7 10 -9 0 -9 3 2 10 11 7 11 10 2
10 -7 0 -10 5 -7 10 4 6 10 8 15 5 4 -3 7 2 6 11 -1 9 -10 20 -19 26 -9 5 -17
14 -17 19 0 6 7 3 16 -5 8 -9 22 -16 30 -16 10 0 6 8 -11 24 -15 14 -26 27
-25 31 3 12 -25 63 -32 59 -4 -3 -8 4 -8 16 0 12 -4 19 -8 16 -4 -2 -13 8 -20
23 -7 15 -21 37 -32 49 -11 12 -20 26 -20 32 0 6 -5 8 -12 4 -8 -5 -9 -2 -5 9
4 11 1 17 -8 17 -7 0 -16 8 -20 19 -3 10 -14 29 -25 42 -11 13 -30 37 -42 52
-13 16 -33 39 -45 52 -13 13 -23 27 -23 30 0 5 -37 50 -67 81 -7 7 -13 15 -13
18 0 7 -75 87 -202 216 -49 49 -88 87 -88 83 0 -3 -13 9 -29 26 -38 40 -165
146 -202 168 -16 10 -29 21 -29 25 0 4 -7 8 -15 8 -8 0 -15 3 -15 8 0 4 -23
20 -50 35 -28 16 -50 33 -50 38 0 6 -4 7 -10 4 -5 -3 -10 -2 -10 2 0 5 -17 17
-37 28 -21 11 -40 22 -43 26 -3 3 -21 14 -40 25 -19 10 -37 21 -40 24 -7 7
-49 30 -55 30 -11 0 -4 -18 15 -40 11 -12 17 -26 15 -30 -3 -4 2 -10 10 -14 8
-3 15 -15 15 -26 0 -11 5 -20 10 -20 6 0 10 -6 10 -14 0 -8 13 -24 30 -37 16
-13 30 -29 30 -35 0 -7 7 -14 15 -18 8 -3 15 -11 14 -18 0 -10 -2 -10 -6 0 -2
6 -10 12 -15 12 -6 0 -8 -3 -5 -6 4 -4 -3 -15 -14 -25 -11 -9 -20 -21 -20 -26
0 -15 -53 -2 -84 21 -16 12 -43 28 -58 36 -16 8 -40 25 -53 37 -14 13 -32 23
-40 23 -7 0 -14 5 -14 11 0 5 -4 7 -10 4 -5 -3 -10 -1 -10 6 0 7 -3 9 -6 6 -4
-4 -19 2 -34 13 -16 11 -33 20 -39 20 -6 0 -11 4 -11 9 0 5 -13 12 -29 16 -16
3 -35 13 -42 21 -6 8 -18 14 -26 14 -8 0 -27 8 -41 18 -24 16 -130 66 -247
117 -22 10 -67 30 -100 45 -33 15 -71 31 -85 35 -14 4 -35 13 -47 21 -18 11
-23 12 -23 2 0 -10 -2 -10 -8 -1 -4 7 -21 14 -38 17 -46 8 -96 31 -129 60 -16
14 -33 26 -37 26 -5 0 -8 7 -8 15 0 9 -12 20 -26 25 -16 7 -23 14 -18 22 6 10
5 10 -8 0 -13 -10 -18 -7 -31 20 -9 18 -19 32 -22 30 -9 -4 -64 31 -60 38 2 4
-11 8 -30 9 -73 4 -85 6 -85 15 0 5 -7 3 -15 -4 -10 -9 -15 -9 -15 -1 0 6 -18
11 -44 11 -25 0 -48 5 -52 11 -4 8 -9 7 -15 -2 -5 -8 -9 -9 -9 -3 0 5 -10 11
-22 11 -33 2 -103 11 -103 13 0 3 -104 9 -220 13 -116 3 -138 9 -129 31 11 28
10 166 0 166 -7 0 -8 3 -1 8 15 11 18 75 4 66 -8 -5 -9 -3 -3 7 12 20 14 38 3
45 -5 3 -7 10 -4 15 12 19 13 49 2 49 -8 0 -8 3 -2 8 13 9 15 42 3 42 -7 0 -7
5 -1 13 11 14 11 27 0 45 -5 6 -4 12 1 12 6 0 8 9 5 20 -3 11 -11 20 -19 20
-10 0 -13 -50 -12 -257z m-347 -343 c-3 -5 -19 -8 -36 -8 -35 1 -23 12 15 14
14 1 24 -2 21 -6z m-2635 -1956 c0 -2 -9 -8 -20 -14 -15 -8 -18 -8 -14 3 4 11
34 21 34 11z m-20 -44 c-19 -13 -30 -13 -30 0 0 6 10 10 23 10 18 0 19 -2 7
-10z m-515 -430 c4 -6 12 -7 18 -4 7 4 8 3 4 -2 -5 -5 -14 -9 -20 -9 -7 0 -12
-5 -12 -12 0 -6 -3 -14 -6 -17 -3 -3 -5 8 -5 24 0 30 9 39 21 20z m70 -120
c18 -20 18 -20 -6 -18 -16 1 -26 9 -26 20 -2 24 10 23 32 -2z m18 -48 c-4 -10
-8 -11 -13 -2 -4 6 -10 11 -14 10 -4 -1 -12 1 -19 4 -6 2 2 4 19 3 23 -1 30
-5 27 -15z m-38 -22 c-3 -5 3 -11 12 -14 15 -4 15 -5 -1 -3 -11 1 -20 10 -22
20 -1 9 2 15 7 11 5 -3 7 -9 4 -14z m140 -29 c3 -5 2 -12 -3 -15 -5 -3 -9 1
-9 9 0 17 3 19 12 6z m-90 -30 c-3 -6 -11 -11 -16 -11 -5 0 -4 6 3 14 14 16
24 13 13 -3z m-110 -41 c-3 -5 -12 -10 -18 -10 -7 0 -6 4 3 10 19 12 23 12 15
0z m190 -20 c3 -6 -1 -7 -9 -4 -18 7 -21 14 -7 14 6 0 13 -4 16 -10z m-212
-15 c-3 -9 -8 -14 -10 -11 -3 3 -2 9 2 15 9 16 15 13 8 -4z m7137 0 c10 -12
10 -15 -2 -15 -8 0 -15 7 -15 15 0 8 1 15 2 15 2 0 8 -7 15 -15z m-7221 -121
c-15 -18 -25 -18 -33 2 -3 8 -2 12 4 9 14 -9 12 8 -2 24 -7 8 -1 6 15 -4 21
-14 25 -20 16 -31z m68 4 c15 -6 32 -10 36 -10 4 1 10 -4 13 -12 3 -8 12 -12
20 -9 8 3 14 0 14 -7 0 -6 5 -8 10 -5 6 4 10 -5 10 -19 0 -14 -4 -26 -9 -26
-5 0 -8 -8 -6 -17 1 -10 0 -22 -3 -28 -3 -5 -7 -16 -8 -25 -1 -8 -5 -26 -8
-40 -3 -14 -8 -35 -10 -47 -3 -13 -7 -26 -9 -31 -3 -4 -8 -26 -11 -48 -7 -47
-13 -78 -22 -119 -4 -16 -8 -37 -9 -45 -1 -8 -4 -24 -8 -35 -3 -11 -8 -38 -12
-59 -3 -22 -10 -46 -17 -53 -6 -7 -8 -16 -5 -20 10 -9 -12 -43 -28 -43 -8 0
-13 -6 -11 -12 1 -7 1 -10 -1 -5 -3 4 -10 4 -15 1 -7 -4 -8 -2 -4 4 5 8 0 12
-13 12 -12 0 -21 4 -21 10 0 18 -43 50 -55 40 -9 -7 -35 -7 -55 0 -3 1 -7 2
-10 2 -3 0 -6 22 -8 49 -1 29 2 49 9 49 6 0 7 5 2 13 -10 16 -12 57 -2 57 4 0
6 11 4 25 -1 14 1 28 5 30 5 3 7 13 6 23 -2 9 2 20 7 24 7 4 7 11 -2 21 -9 11
-9 17 -1 22 6 4 9 13 6 21 -3 8 -1 14 5 14 6 0 7 5 4 10 -3 6 -2 10 3 10 6 0
8 9 5 20 -3 13 0 20 8 20 12 0 12 2 1 9 -11 7 -10 9 3 15 9 3 13 10 10 16 -3
5 -1 10 6 10 9 0 9 4 -1 15 -10 12 -8 14 9 10 12 -2 19 0 16 6 -4 5 -1 9 5 9
6 0 9 4 6 9 -3 4 4 17 17 27 22 19 22 19 4 -2 -16 -19 -16 -22 -2 -34 13 -11
14 -10 9 5 -5 13 -4 16 5 10 7 -4 11 -18 9 -30 -4 -17 -1 -22 9 -18 8 3 12 12
9 19 -3 7 1 17 8 21 8 5 16 19 18 33 1 14 7 28 12 32 6 4 4 13 -4 22 -11 14
-10 16 5 10 15 -6 16 -4 5 16 -10 18 -9 21 1 15 9 -6 11 -3 6 8 -8 20 -6 20
30 5z m7103 -48 c0 -5 -5 -10 -11 -10 -5 0 -7 5 -4 10 3 6 8 10 11 10 2 0 4
-4 4 -10z"/>
<path d="M8436 6967 c3 -10 9 -15 12 -12 3 3 0 11 -7 18 -10 9 -11 8 -5 -6z"/>
<path d="M8456 6927 c3 -10 9 -15 12 -12 3 3 0 11 -7 18 -10 9 -11 8 -5 -6z"/>
<path d="M2097 6756 c-4 -10 1 -12 14 -9 23 6 24 9 5 16 -8 3 -17 0 -19 -7z"/>
<path d="M1965 6710 c-3 -5 -3 -10 2 -10 4 0 1 -5 -7 -10 -13 -8 -13 -10 2
-10 11 0 16 7 15 20 -1 23 -3 24 -12 10z"/>
<path d="M1655 6641 c-3 -5 0 -13 6 -16 5 -4 8 -14 5 -22 -4 -8 -1 -11 5 -8 6
4 8 13 5 21 -3 8 -1 14 5 14 6 0 7 5 4 10 -8 13 -22 13 -30 1z"/>
<path d="M1650 6159 c0 -5 5 -7 10 -4 6 3 10 8 10 11 0 2 -4 4 -10 4 -5 0 -10
-5 -10 -11z"/>
<path d="M970 6140 c0 -5 5 -10 11 -10 5 0 7 5 4 10 -3 6 -8 10 -11 10 -2 0
-4 -4 -4 -10z"/>
<path d="M969 5153 c0 -10 -2 -26 -4 -35 -2 -11 2 -15 12 -11 11 4 11 8 3 13
-9 5 -9 9 -1 14 14 9 15 36 1 36 -5 0 -10 -8 -11 -17z"/>
<path d="M969 5088 c-6 -20 -5 -38 1 -48 5 -7 7 0 6 19 -1 26 -4 39 -7 29z"/>
<path d="M3106 1298 c3 -4 9 -8 15 -8 5 0 9 4 9 8 0 5 -7 9 -15 9 -8 0 -12 -4
-9 -9z"/>
</g>
</svg>
